<?xml version="1.0" standalone="no"?>
<!DOCTYPE svg PUBLIC "-//W3C//DTD SVG 20010904//EN"
 "http://www.w3.org/TR/2001/REC-SVG-20010904/DTD/svg10.dtd">
<svg version="1.0" xmlns="http://www.w3.org/2000/svg"
 width="704.000000pt" height="704.000000pt" viewBox="0 0 704.000000 704.000000"
 preserveAspectRatio="xMidYMid meet">

<g transform="translate(0.000000,704.000000) scale(0.100000,-0.100000)"
fill="#000000" stroke="none">
<path d="M4756 5509 c-44 -24 -89 -62 -160 -137 -28 -30 -103 -107 -166 -172
-63 -65 -146 -153 -185 -196 -38 -42 -121 -128 -182 -191 -62 -62 -113 -116
-113 -119 0 -5 -198 -202 -249 -246 -29 -26 -38 -28 -116 -28 -50 0 -85 -4
-85 -10 0 -5 -18 -10 -40 -10 -22 0 -40 -4 -40 -10 0 -5 -13 -10 -30 -10 -16
0 -30 -4 -30 -10 0 -5 -11 -10 -24 -10 -14 0 -28 -4 -31 -10 -3 -5 -17 -10
-31 -10 -13 0 -24 -4 -24 -10 0 -5 -9 -10 -20 -10 -11 0 -30 -5 -43 -12 -48
-24 -57 -28 -77 -28 -11 0 -20 -4 -20 -8 0 -5 -22 -15 -50 -22 -27 -7 -50 -17
-50 -21 0 -3 -13 -9 -29 -12 -31 -7 -215 -75 -289 -108 -47 -21 -112 -80 -112
-101 0 -8 -9 -20 -20 -28 -11 -8 -20 -22 -20 -32 0 -10 -4 -18 -10 -18 -5 0
-10 -7 -10 -15 0 -8 -25 -67 -55 -131 -30 -64 -55 -123 -55 -130 0 -8 -4 -14
-10 -14 -5 0 -10 -9 -10 -20 0 -11 -4 -20 -10 -20 -5 0 -10 -9 -10 -20 0 -11
-4 -20 -10 -20 -5 0 -10 -9 -10 -20 0 -11 -4 -20 -10 -20 -5 0 -10 -9 -10 -20
0 -11 -4 -20 -10 -20 -5 0 -10 -9 -10 -19 0 -11 -4 -23 -10 -26 -5 -3 -10 -17
-10 -31 0 -13 -4 -24 -10 -24 -5 0 -10 -11 -10 -25 0 -14 -4 -25 -10 -25 -5 0
-10 -13 -10 -30 0 -16 -4 -30 -10 -30 -5 0 -10 -22 -10 -50 0 -27 -4 -50 -10
-50 -5 0 -10 -9 -10 -20 0 -11 5 -20 10 -20 6 0 10 -9 10 -20 0 -16 7 -20 30
-20 17 0 30 -4 30 -10 0 -5 9 -10 20 -10 28 0 25 -14 -7 -31 -32 -16 -138
-119 -171 -166 -31 -43 -29 -73 3 -73 14 0 33 6 41 13 42 34 114 110 114 121
0 6 9 18 20 26 11 8 20 22 20 32 0 10 5 18 10 18 6 0 10 9 10 20 0 18 7 20 54
20 61 0 68 -6 87 -73 17 -58 54 -108 67 -89 11 16 4 62 -9 62 -5 0 -9 9 -9 20
0 11 -3 20 -7 20 -26 0 -46 131 -23 145 6 3 10 14 10 24 0 20 62 91 79 91 19
0 61 -48 61 -70 0 -11 5 -20 10 -20 6 0 10 -20 10 -45 0 -25 5 -45 10 -45 6 0
10 -18 10 -40 0 -22 -4 -40 -10 -40 -5 0 -10 -11 -10 -25 0 -14 -4 -25 -10
-25 -5 0 -10 -6 -10 -13 0 -7 -17 -21 -37 -31 -20 -9 -75 -58 -122 -108 -204
-216 -218 -228 -251 -228 -17 0 -38 6 -46 14 -16 17 -19 46 -4 46 16 0 11 50
-7 68 -12 12 -18 13 -21 4 -9 -28 -62 -1 -62 32 0 9 -4 16 -10 16 -5 0 -10 9
-10 20 0 30 -16 24 -32 -10 -7 -17 -16 -30 -20 -30 -5 0 -8 -6 -8 -13 0 -8
-16 -46 -35 -86 -19 -39 -35 -75 -35 -79 0 -4 -12 -21 -28 -37 -33 -38 -52
-70 -52 -90 0 -8 -4 -15 -10 -15 -5 0 -10 -11 -10 -25 0 -14 -4 -25 -10 -25
-5 0 -10 -8 -10 -19 0 -12 -10 -21 -28 -26 -41 -12 -351 -24 -777 -30 -211 -4
-384 -11 -390 -16 -5 -5 -55 -9 -112 -9 -62 0 -103 -4 -103 -10 0 -5 -9 -10
-20 -10 -29 0 -25 -34 5 -48 14 -7 32 -12 40 -12 8 0 15 -4 15 -10 0 -5 13
-10 29 -10 17 0 32 -4 35 -9 6 -8 24 -12 129 -27 23 -3 46 -10 51 -15 6 -5 27
-9 48 -9 21 0 38 -4 38 -9 0 -5 24 -11 53 -14 28 -3 72 -10 97 -17 25 -6 59
-14 75 -16 17 -3 39 -9 50 -13 11 -5 40 -14 65 -22 37 -12 45 -18 45 -38 0
-27 -44 -59 -82 -60 -13 -1 -23 -5 -23 -11 0 -5 -11 -10 -24 -10 -14 0 -28 -4
-31 -10 -3 -5 -19 -10 -36 -10 -16 0 -29 -4 -29 -10 0 -5 -13 -10 -30 -10 -16
0 -30 -4 -30 -10 0 -5 -18 -10 -40 -10 -22 0 -40 -4 -40 -10 0 -5 -16 -10 -35
-10 -19 0 -35 -4 -35 -10 0 -5 -16 -10 -35 -10 -19 0 -35 -4 -35 -10 0 -5 -18
-10 -40 -10 -22 0 -40 -4 -40 -10 0 -5 -20 -10 -45 -10 -25 0 -45 -4 -45 -10
0 -5 -18 -10 -40 -10 -22 0 -40 -4 -40 -10 0 -5 -18 -10 -40 -10 -22 0 -40 -4
-40 -10 0 -5 -18 -10 -39 -10 -22 0 -43 -5 -46 -10 -3 -6 -24 -10 -46 -10 -21
0 -39 -4 -39 -10 0 -5 -18 -10 -40 -10 -22 0 -40 -4 -40 -10 0 -5 -18 -10 -40
-10 -22 0 -40 -5 -40 -11 0 -11 17 -10 128 7 23 3 45 10 48 15 3 5 20 9 39 9
19 0 37 5 40 10 3 6 26 10 51 10 24 0 44 5 44 10 0 6 18 10 40 10 22 0 40 5
40 10 0 6 18 10 40 10 22 0 40 5 40 10 0 6 18 10 40 10 22 0 40 5 40 10 0 6
18 10 40 10 22 0 40 5 40 10 0 6 16 10 35 10 19 0 35 5 35 10 0 6 18 10 40 10
22 0 40 5 40 10 0 6 18 10 40 10 22 0 40 5 40 10 0 6 14 10 30 10 17 0 30 5
30 10 0 6 14 10 30 10 17 0 30 5 30 10 0 6 11 10 25 10 14 0 25 5 25 10 0 6
11 10 25 10 14 0 25 3 25 8 0 4 15 14 32 21 52 23 63 38 48 65 -13 25 -73 56
-108 56 -11 0 -23 4 -26 9 -6 9 -42 17 -123 27 -24 4 -43 10 -43 15 0 5 -22 9
-49 9 -28 0 -53 5 -56 10 -3 6 -24 10 -46 10 -21 0 -39 5 -39 10 0 6 -22 10
-50 10 -27 0 -50 5 -50 10 0 6 -18 10 -40 10 -22 0 -40 5 -40 10 0 6 -18 10
-40 10 -22 0 -40 5 -40 10 0 6 -9 10 -20 10 -24 0 -25 6 -6 26 11 11 44 14
135 14 74 0 121 4 121 10 0 6 136 10 389 10 249 0 392 4 396 10 4 6 68 10 161
10 96 0 154 4 154 10 0 6 14 10 30 10 17 0 30 5 30 10 0 6 8 10 18 10 10 0 24
9 32 20 8 11 20 20 27 20 7 0 21 6 30 14 10 8 37 30 60 49 23 19 68 43 100 53
32 10 60 20 63 24 3 3 25 12 50 20 32 10 64 34 110 81 36 36 72 76 80 89 34
50 107 129 151 163 28 21 46 22 65 2 10 -9 34 -15 66 -15 51 0 51 0 30 -19
-12 -10 -22 -24 -22 -30 0 -6 -6 -21 -12 -32 -10 -17 -10 -23 0 -26 6 -3 12
-13 12 -24 0 -10 5 -19 10 -19 6 0 10 -7 10 -16 0 -19 68 -84 87 -84 7 0 13
-4 13 -8 0 -5 16 -14 35 -22 19 -8 35 -17 35 -22 0 -4 34 -8 76 -8 72 0 78 2
104 30 29 32 60 40 60 16 0 -8 22 -37 50 -65 62 -63 129 -86 234 -79 74 5 146
32 146 55 0 7 5 13 10 13 6 0 10 7 10 15 0 21 2 20 49 -24 46 -43 84 -53 135
-36 35 12 66 36 66 52 0 4 9 19 20 33 11 14 20 35 20 48 0 12 5 22 10 22 15 0
13 137 -2 143 -9 3 -10 8 -3 15 8 8 18 7 39 -3 16 -8 35 -15 42 -15 8 0 14 -4
14 -10 0 -5 9 -10 20 -10 11 0 20 -4 20 -10 0 -5 14 -10 30 -10 17 0 30 -4 30
-10 0 -5 14 -10 30 -10 17 0 30 -4 30 -10 0 -5 11 -10 25 -10 14 0 25 -4 25
-10 0 -5 14 -10 30 -10 17 0 30 -4 30 -10 0 -5 13 -10 29 -10 17 0 33 -4 36
-10 3 -5 19 -10 35 -10 16 0 32 -4 35 -10 3 -5 19 -10 36 -10 16 0 29 -4 29
-10 0 -5 15 -10 34 -10 19 0 38 -4 41 -10 3 -5 19 -10 35 -10 16 0 32 -5 35
-10 3 -6 19 -10 35 -10 16 0 31 -4 34 -9 3 -5 23 -11 43 -14 21 -3 58 -10 83
-17 25 -6 68 -15 95 -20 28 -4 97 -20 155 -35 76 -19 141 -28 236 -32 l130 -6
32 39 c29 35 32 45 32 109 0 39 -4 75 -9 81 -9 8 -12 29 -27 194 -3 36 -10 69
-15 74 -13 14 -12 246 1 246 6 0 10 20 10 44 0 25 5 48 10 51 6 3 10 17 10 30
0 13 5 27 10 30 6 3 10 15 10 26 0 11 16 53 35 93 19 41 35 77 35 80 0 3 14
20 30 38 17 17 30 35 30 40 0 14 27 38 42 38 8 0 20 9 28 20 8 11 22 20 32 20
10 0 18 5 18 10 0 6 14 10 30 10 17 0 30 4 30 9 0 25 280 30 655 12 310 -16
609 -27 614 -24 2 2 1 6 -3 11 -8 7 -67 10 -596 31 -157 6 -310 12 -340 14
-105 6 -313 -12 -371 -33 -30 -11 -55 -25 -57 -30 -2 -6 -10 -10 -18 -10 -19
0 -124 -105 -124 -125 0 -8 -4 -15 -8 -15 -7 0 -51 -89 -72 -145 -4 -11 -13
-33 -19 -48 -6 -15 -11 -39 -11 -52 0 -14 -4 -25 -9 -25 -16 0 -24 -73 -23
-220 0 -153 7 -242 22 -275 5 -11 12 -49 15 -85 3 -36 9 -86 11 -112 7 -56
-10 -101 -45 -120 -36 -19 -140 -14 -282 16 -70 14 -138 26 -152 26 -14 0 -28
4 -31 9 -3 5 -25 12 -48 15 -104 16 -118 19 -124 27 -3 5 -20 9 -39 9 -19 0
-37 5 -40 10 -3 6 -22 10 -41 10 -19 0 -34 5 -34 10 0 6 -18 10 -40 10 -22 0
-40 5 -40 10 0 6 -13 10 -30 10 -16 0 -30 5 -30 10 0 6 -18 10 -40 10 -22 0
-40 5 -40 10 0 6 -13 10 -30 10 -16 0 -30 5 -30 10 0 6 -13 10 -30 10 -16 0
-30 5 -30 10 0 6 -13 10 -29 10 -17 0 -33 5 -36 10 -3 6 -17 10 -31 10 -13 0
-24 5 -24 10 0 6 -11 10 -24 10 -14 0 -28 4 -31 10 -3 6 -17 10 -31 10 -13 0
-24 4 -24 8 0 5 -22 15 -50 22 -27 7 -50 17 -50 22 0 4 -9 8 -20 8 -11 0 -20
5 -20 10 0 6 -9 10 -20 10 -11 0 -20 5 -20 10 0 6 -7 10 -16 10 -9 0 -40 13
-68 29 -78 45 -134 62 -162 49 -13 -6 -24 -15 -24 -20 0 -22 -36 -42 -79 -46
-34 -2 -61 4 -101 22 -30 14 -71 26 -90 26 -44 0 -103 -34 -98 -58 3 -15 18
-17 103 -19 55 -2 109 -5 121 -8 28 -6 64 -39 64 -59 0 -9 5 -16 10 -16 6 0
10 -9 10 -20 0 -11 5 -20 10 -20 6 0 10 -13 10 -30 0 -16 5 -30 10 -30 6 0 10
-24 10 -52 0 -41 -5 -59 -23 -79 -27 -31 -112 -58 -130 -40 -8 8 -8 14 1 23
14 14 16 108 2 108 -5 0 -10 11 -10 25 0 25 -56 95 -77 95 -6 0 -13 5 -15 11
-2 6 -31 11 -65 12 -52 1 -65 -2 -81 -21 -27 -31 -32 -28 -32 18 0 22 5 40 10
40 14 0 12 127 -2 169 -19 52 -34 66 -53 47 -12 -11 -15 -41 -15 -135 0 -74 4
-121 10 -121 6 0 10 -25 10 -55 0 -50 -3 -59 -35 -90 -31 -31 -40 -35 -89 -35
-30 0 -58 5 -61 10 -3 6 -15 10 -26 10 -10 0 -19 5 -19 10 0 6 -7 10 -15 10
-8 0 -15 5 -15 10 0 6 -5 10 -10 10 -6 0 -31 20 -55 45 -40 39 -45 50 -45 89
0 24 4 46 8 48 5 2 24 23 43 48 39 51 169 180 182 180 5 0 22 14 37 30 15 17
35 30 44 30 9 0 16 5 16 10 0 6 9 10 20 10 11 0 20 5 20 10 0 6 9 10 20 10 11
0 20 5 20 10 0 6 14 10 30 10 17 0 30 5 30 10 0 6 19 10 43 10 24 0 48 5 54
11 19 19 353 -1 353 -22 0 -5 11 -9 25 -9 14 0 25 -4 25 -10 0 -5 9 -10 20
-10 11 0 20 -4 20 -10 0 -5 9 -10 20 -10 11 0 20 -4 20 -10 0 -5 7 -10 15 -10
8 0 15 -4 15 -10 0 -5 6 -10 13 -10 7 0 19 -9 27 -20 8 -11 21 -20 30 -20 9 0
22 -9 30 -20 8 -11 20 -20 28 -20 7 0 24 -11 37 -24 13 -14 34 -27 45 -31 11
-3 20 -11 20 -16 0 -5 6 -9 14 -9 7 0 34 -11 59 -25 48 -27 167 -72 232 -87
145 -35 350 -39 420 -8 11 4 41 14 68 21 26 8 47 17 47 21 0 4 6 8 13 8 7 0
36 16 66 35 29 19 56 35 60 35 6 0 113 106 215 212 20 21 36 43 36 50 0 8 9
20 20 28 11 8 20 20 20 27 0 7 5 13 10 13 6 0 10 7 10 15 0 8 5 15 10 15 6 0
10 6 10 14 0 8 3 16 8 18 10 4 52 87 52 104 0 8 4 14 8 14 29 0 48 210 24 265
-16 35 -83 93 -121 102 -14 3 -28 9 -31 12 -8 10 -75 31 -98 31 -11 0 -24 5
-27 10 -3 6 -19 10 -35 10 -16 0 -32 5 -35 10 -3 6 -22 10 -41 10 -19 0 -34 5
-34 10 0 6 -13 10 -30 10 -16 0 -30 5 -30 10 0 6 -13 10 -30 10 -16 0 -30 5
-30 10 0 6 -13 10 -30 10 -16 0 -30 5 -30 10 0 6 -9 10 -20 10 -11 0 -20 5
-20 10 0 6 -11 10 -25 10 -14 0 -25 5 -25 10 0 6 -11 10 -25 10 -14 0 -25 5
-25 10 0 6 -9 10 -20 10 -11 0 -20 5 -20 10 0 6 -11 10 -25 10 -14 0 -25 5
-25 10 0 6 -9 10 -20 10 -11 0 -20 5 -20 10 0 6 -9 10 -20 10 -11 0 -20 5 -20
10 0 6 -9 10 -20 10 -11 0 -20 5 -20 10 0 6 -9 10 -20 10 -11 0 -20 5 -20 10
0 6 -9 10 -20 10 -11 0 -20 5 -20 10 0 6 -9 10 -20 10 -11 0 -20 5 -20 10 0 6
-8 10 -17 11 -10 0 -31 9 -48 19 -16 10 -55 31 -85 47 -30 15 -56 31 -58 35
-2 4 -12 8 -23 8 -10 0 -19 5 -19 10 0 6 -7 10 -16 10 -8 0 -22 7 -30 15 -16
15 -31 0 412 437 175 173 274 281 274 298 0 5 5 10 10 10 6 0 10 7 10 15 0 8
5 15 10 15 6 0 10 9 10 19 0 11 9 23 20 26 11 3 20 11 20 16 0 5 8 9 18 9 10
0 24 9 32 20 8 11 20 20 26 20 17 0 84 69 84 86 0 8 5 14 10 14 15 0 12 73 -5
107 -21 43 -110 123 -147 134 -43 12 -47 12 -92 -12z m107 -21 c12 -6 40 -30
62 -53 86 -89 88 -125 9 -201 -31 -30 -62 -54 -68 -54 -6 0 -18 -9 -26 -20
-17 -23 -70 -28 -70 -6 0 19 -145 166 -163 166 -23 0 -28 -28 -13 -59 22 -42
90 -107 133 -127 21 -10 40 -19 42 -21 6 -5 -21 -56 -39 -73 -9 -8 -27 -31
-40 -50 -40 -57 -240 -262 -435 -445 -59 -55 -135 -128 -171 -162 -44 -44 -71
-63 -89 -63 -14 0 -25 5 -25 10 0 6 -18 10 -39 10 -22 0 -43 5 -46 10 -3 6
-26 10 -50 10 -24 0 -47 -4 -50 -10 -3 -5 -22 -10 -41 -10 -19 0 -34 -4 -34
-10 0 -5 -11 -10 -25 -10 -14 0 -25 -4 -25 -10 0 -5 -6 -10 -13 -10 -7 0 -23
-9 -35 -20 -12 -11 -25 -20 -29 -20 -4 0 -20 -10 -35 -23 -14 -12 -36 -29 -48
-37 -53 -36 -230 -207 -230 -222 0 -4 -6 -8 -13 -8 -7 0 -19 -9 -27 -20 -8
-11 -18 -20 -22 -20 -5 0 -37 -28 -72 -62 -153 -152 -202 -172 -204 -82 0 26
-5 51 -11 57 -6 6 -11 19 -11 29 0 10 -4 18 -10 18 -5 0 -10 8 -10 18 -1 24
-35 62 -56 62 -27 0 -13 -96 26 -171 17 -34 28 -65 23 -69 -4 -5 -33 -11 -63
-14 -30 -3 -67 -9 -81 -13 -39 -12 -79 -45 -79 -65 0 -10 -4 -18 -10 -18 -5 0
-10 -9 -10 -20 0 -11 -4 -20 -10 -20 -5 0 -10 -13 -10 -30 0 -16 -4 -30 -10
-30 -5 0 -10 -13 -10 -30 0 -16 -4 -30 -10 -30 -5 0 -10 -9 -10 -20 0 -11 -4
-20 -8 -20 -4 0 -16 -14 -26 -31 -10 -16 -33 -44 -51 -60 -60 -55 -78 -119
-33 -119 21 0 21 3 2 -107 -6 -33 -6 -33 -66 -33 -45 0 -64 5 -80 20 -13 12
-36 20 -55 20 l-33 0 0 70 c0 40 4 70 10 70 6 0 10 14 10 30 0 17 5 30 10 30
6 0 10 14 10 30 0 17 5 30 10 30 6 0 10 11 10 25 0 14 5 25 10 25 6 0 10 9 10
20 0 11 5 20 10 20 6 0 10 7 10 14 0 8 28 73 63 144 86 179 107 226 107 240 0
7 5 12 10 12 6 0 10 9 10 20 0 11 5 20 10 20 6 0 10 9 10 20 0 11 5 20 10 20
6 0 10 7 10 15 0 16 21 45 57 79 35 34 46 41 93 56 25 8 47 17 50 20 3 3 39
17 80 31 149 53 205 74 210 80 3 3 40 16 82 30 43 13 78 27 78 32 0 4 11 7 24
7 14 0 28 5 31 10 3 6 17 10 31 10 13 0 24 5 24 10 0 6 14 10 30 10 17 0 30 5
30 10 0 6 14 10 30 10 17 0 30 5 30 10 0 6 18 10 40 10 22 0 40 5 40 10 0 6
35 10 85 10 50 0 85 4 85 10 0 6 5 10 10 10 13 0 150 137 150 150 0 6 4 10 10
10 11 0 251 241 320 321 25 29 53 59 63 68 9 8 17 21 17 28 0 7 4 13 9 13 12
0 182 169 211 210 24 34 175 187 218 222 35 28 95 57 120 58 13 0 33 -5 45
-12z m-195 -248 c56 -60 64 -71 59 -76 -7 -7 -65 43 -104 90 -16 19 -16 26 -2
26 6 0 27 -18 47 -40z m-718 -929 c0 -5 9 -11 21 -13 20 -3 20 -3 2 -23 -11
-11 -43 -40 -72 -65 -29 -25 -90 -81 -136 -125 -99 -95 -143 -135 -150 -135
-3 0 -32 -27 -66 -60 -33 -33 -65 -60 -71 -60 -5 0 -22 -12 -37 -27 -47 -49
-123 -96 -170 -105 -25 -5 -136 -13 -246 -18 -220 -10 -284 -17 -303 -33 -18
-14 -27 -1 -10 16 16 16 122 38 205 42 32 2 63 3 69 4 6 1 37 26 69 56 31 30
60 55 65 55 4 0 42 34 84 75 42 41 79 75 81 75 3 0 47 42 99 93 51 50 103 99
115 107 20 13 45 32 77 58 5 5 21 15 35 22 13 7 26 16 29 19 3 3 19 12 35 20
17 7 37 17 45 22 21 11 230 11 230 0z m100 -41 c0 -5 6 -10 14 -10 18 0 270
-130 274 -142 2 -4 12 -8 23 -8 10 0 19 -4 19 -10 0 -5 9 -10 20 -10 11 0 20
-4 20 -10 0 -5 9 -10 20 -10 11 0 20 -4 20 -10 0 -5 9 -10 20 -10 11 0 20 -4
20 -10 0 -5 9 -10 19 -10 11 0 23 -4 26 -10 3 -5 15 -10 26 -10 10 0 19 -4 19
-10 0 -5 9 -10 20 -10 11 0 20 -4 20 -10 0 -5 9 -10 20 -10 11 0 20 -4 20 -10
0 -5 14 -10 30 -10 17 0 30 -4 30 -10 0 -5 9 -10 20 -10 11 0 20 -4 20 -10 0
-5 11 -10 24 -10 14 0 28 -4 31 -10 3 -5 15 -10 26 -10 10 0 19 -4 19 -10 0
-5 14 -10 30 -10 17 0 30 -4 30 -10 0 -5 14 -10 30 -10 17 0 30 -4 30 -9 0 -5
15 -11 33 -14 17 -3 50 -10 72 -17 22 -7 55 -14 73 -17 18 -3 35 -9 38 -14 3
-5 14 -9 25 -9 25 0 141 -58 152 -76 4 -7 14 -20 22 -28 28 -28 12 -246 -17
-246 -5 0 -8 -11 -8 -25 0 -14 -4 -25 -10 -25 -5 0 -10 -9 -10 -20 0 -11 -4
-20 -10 -20 -5 0 -10 -7 -10 -15 0 -8 -3 -15 -8 -15 -4 0 -14 -15 -21 -32 -8
-18 -23 -40 -33 -49 -10 -9 -18 -22 -18 -29 0 -6 -13 -25 -30 -40 -16 -15 -30
-33 -30 -38 0 -10 -115 -129 -158 -164 -12 -10 -41 -30 -64 -44 -24 -15 -59
-38 -78 -50 -19 -13 -70 -34 -112 -48 -68 -23 -92 -26 -224 -26 -81 0 -161 4
-178 9 -17 6 -58 17 -91 27 -77 21 -245 93 -245 105 0 5 -8 9 -18 9 -10 0 -24
9 -32 20 -8 11 -21 20 -30 20 -9 0 -22 9 -30 20 -8 11 -21 20 -28 20 -8 0 -27
14 -42 30 -15 17 -35 30 -44 30 -9 0 -16 5 -16 10 0 6 -7 10 -15 10 -8 0 -15
5 -15 10 0 6 -7 10 -15 10 -8 0 -15 5 -15 10 0 6 -7 10 -15 10 -8 0 -24 5 -35
10 -11 6 -29 15 -40 20 -11 6 -33 10 -49 10 -17 0 -33 5 -36 10 -4 6 -68 10
-160 10 -92 0 -156 -4 -160 -10 -3 -5 -24 -10 -46 -10 -21 0 -39 -4 -39 -10 0
-5 -13 -10 -30 -10 -16 0 -30 -4 -30 -10 0 -5 -9 -10 -20 -10 -11 0 -20 -4
-20 -10 0 -5 -6 -10 -13 -10 -7 0 -23 -9 -35 -20 -12 -11 -26 -20 -31 -20 -6
0 -32 -20 -58 -44 -137 -127 -147 -134 -165 -125 -23 12 -88 11 -88 -1 0 -5
-4 -10 -10 -10 -5 0 -10 9 -10 20 0 11 5 20 10 20 6 0 10 9 10 20 0 11 5 20
10 20 6 0 10 27 10 60 0 33 -4 60 -10 60 -5 0 -10 18 -10 40 0 22 -4 40 -10
40 -5 0 -10 9 -10 20 0 11 -4 20 -10 20 -5 0 -10 7 -10 16 0 23 -25 44 -54 44
-16 0 -26 6 -26 15 0 8 5 15 10 15 6 0 10 9 10 20 0 11 5 20 10 20 6 0 10 18
10 40 0 22 5 40 10 40 6 0 10 14 10 30 0 17 5 30 10 30 6 0 10 14 10 30 0 17
5 30 10 30 6 0 10 7 10 15 0 19 44 65 63 65 7 0 17 4 22 9 13 12 104 20 335
29 102 4 194 11 205 16 54 22 91 40 101 50 6 6 22 18 34 26 12 8 40 32 62 53
22 20 43 37 48 37 4 0 42 34 84 75 42 41 79 75 81 75 5 0 59 51 220 205 22 22
54 50 71 62 31 23 64 30 64 13z m-1170 -392 c7 -18 17 -43 22 -54 5 -12 8 -30
6 -40 -4 -14 -12 -3 -31 39 -15 32 -27 64 -27 72 0 26 17 16 30 -17z m-329
-561 c-6 -6 -11 -17 -11 -24 0 -19 -46 -63 -65 -63 -8 0 -15 3 -15 6 0 14 26
51 59 86 27 28 37 33 39 22 2 -9 -1 -21 -7 -27z m-269 -319 c-7 -7 -12 -18
-12 -26 0 -8 -13 -27 -30 -42 -16 -15 -30 -31 -30 -35 0 -6 -53 -54 -76 -67
-9 -6 -11 -2 -6 14 5 22 21 45 60 85 12 13 22 28 22 33 0 6 6 10 13 10 8 0 22
9 33 19 10 11 23 20 29 20 5 1 4 -4 -3 -11z m838 -100 c9 -38 10 -53 1 -56 -6
-2 -11 -19 -11 -37 0 -19 -4 -37 -10 -40 -6 -4 -10 28 -10 89 0 53 4 96 8 96
5 0 14 -23 22 -52z m-391 -32 c-11 -9 -69 -14 -69 -6 0 13 64 29 69 18 1 -5 1
-11 0 -12z m954 -3 l32 -18 -54 -3 c-59 -3 -66 0 -58 23 8 20 40 19 80 -2z
m-329 -13 c47 -18 28 -30 -45 -30 -61 0 -70 2 -59 14 6 8 24 17 38 19 15 2 30
5 34 6 4 0 18 -3 32 -9z m402 -42 c28 -8 60 -26 80 -46 28 -28 34 -41 34 -78
0 -48 -20 -124 -32 -124 -5 0 -8 -7 -8 -16 0 -9 -15 -31 -34 -50 -26 -26 -42
-34 -70 -34 -49 0 -83 18 -98 52 -7 15 -16 28 -20 28 -5 0 -8 15 -8 34 0 19
-4 38 -10 41 -6 3 -10 50 -10 106 l0 99 65 0 c36 0 86 -6 111 -12z m-196 -42
c0 -25 -4 -48 -10 -51 -5 -3 -10 1 -10 9 0 9 -4 16 -10 16 -5 0 -10 7 -10 15
0 8 -4 15 -10 15 -5 0 -10 9 -10 20 0 16 7 20 30 20 29 0 30 -2 30 -44z
m-1490 -62 c0 -26 26 -44 64 -44 20 0 36 -4 36 -10 0 -5 -4 -10 -10 -10 -13 0
-13 -77 -1 -82 17 -6 -13 -35 -64 -62 -28 -14 -57 -31 -66 -38 -13 -9 -22 -7
-42 8 -38 28 -39 38 -8 107 16 34 36 81 46 105 18 41 45 57 45 26z m1230 -12
c0 -4 14 -13 30 -20 18 -8 30 -21 30 -33 0 -10 5 -19 10 -19 6 0 10 -11 10
-24 0 -14 5 -28 10 -31 14 -9 12 -67 -4 -87 -37 -50 -185 9 -225 89 -18 35
-13 82 12 108 18 19 32 24 75 24 28 1 52 -2 52 -7z m-1316 -265 c-6 -15 -74
-59 -85 -55 -7 3 13 54 34 86 10 15 58 -14 51 -31z"/>
</g>
</svg>
