<svg width="939" height="525" viewBox="0 0 939 525" fill="none" xmlns="http://www.w3.org/2000/svg">
<g clip-path="url(#clip0_477_105)">
<path d="M634.133 3.13338C628.267 6.33338 622.267 11.4 612.8 21.4C609.067 25.4 599.067 35.6667 590.667 44.3334C582.267 53 571.2 64.7334 566 70.4667C560.933 76.0667 549.867 87.5334 541.733 95.9334C533.467 104.2 526.667 111.4 526.667 111.8C526.667 112.467 500.267 138.733 493.467 144.6C489.6 148.067 488.4 148.333 478 148.333C471.333 148.333 466.667 148.867 466.667 149.667C466.667 150.333 464.267 151 461.333 151C458.4 151 456 151.533 456 152.333C456 153 454.267 153.667 452 153.667C449.867 153.667 448 154.2 448 155C448 155.667 446.533 156.333 444.8 156.333C442.933 156.333 441.067 156.867 440.667 157.667C440.267 158.333 438.4 159 436.533 159C434.8 159 433.333 159.533 433.333 160.333C433.333 161 432.133 161.667 430.667 161.667C429.2 161.667 426.667 162.333 424.933 163.267C418.533 166.467 417.333 167 414.667 167C413.2 167 412 167.533 412 168.067C412 168.733 409.067 170.067 405.333 171C401.733 171.933 398.667 173.267 398.667 173.8C398.667 174.2 396.933 175 394.8 175.4C390.667 176.333 366.133 185.4 356.267 189.8C350 192.6 341.333 200.467 341.333 203.267C341.333 204.333 340.133 205.933 338.667 207C337.2 208.067 336 209.933 336 211.267C336 212.6 335.467 213.667 334.667 213.667C334 213.667 333.333 214.6 333.333 215.667C333.333 216.733 330 224.6 326 233.133C322 241.667 318.667 249.533 318.667 250.467C318.667 251.533 318.133 252.333 317.333 252.333C316.667 252.333 316 253.533 316 255C316 256.467 315.467 257.667 314.667 257.667C314 257.667 313.333 258.867 313.333 260.333C313.333 261.8 312.8 263 312 263C311.333 263 310.667 264.2 310.667 265.667C310.667 267.133 310.133 268.333 309.333 268.333C308.667 268.333 308 269.533 308 271C308 272.467 307.467 273.667 306.667 273.667C306 273.667 305.333 274.867 305.333 276.2C305.333 277.667 304.8 279.267 304 279.667C303.333 280.067 302.667 281.933 302.667 283.8C302.667 285.533 302.133 287 301.333 287C300.667 287 300 288.467 300 290.333C300 292.2 299.467 293.667 298.667 293.667C298 293.667 297.333 295.4 297.333 297.667C297.333 299.8 296.8 301.667 296 301.667C295.333 301.667 294.667 304.6 294.667 308.333C294.667 311.933 294.133 315 293.333 315C292.667 315 292 316.2 292 317.667C292 319.133 292.667 320.333 293.333 320.333C294.133 320.333 294.667 321.533 294.667 323C294.667 325.133 295.6 325.667 298.667 325.667C300.933 325.667 302.667 326.2 302.667 327C302.667 327.667 303.867 328.333 305.333 328.333C309.067 328.333 308.667 330.2 304.4 332.467C300.133 334.6 286 348.333 281.6 354.6C277.467 360.333 277.733 364.333 282 364.333C283.867 364.333 286.4 363.533 287.467 362.6C293.067 358.067 302.667 347.933 302.667 346.467C302.667 345.667 303.867 344.067 305.333 343C306.8 341.933 308 340.067 308 338.733C308 337.4 308.667 336.333 309.333 336.333C310.133 336.333 310.667 335.133 310.667 333.667C310.667 331.267 311.6 331 317.867 331C326 331 326.933 331.8 329.467 340.733C331.733 348.467 336.667 355.133 338.4 352.6C339.867 350.467 338.933 344.333 337.2 344.333C336.533 344.333 336 343.133 336 341.667C336 340.2 335.6 339 335.067 339C331.6 339 328.933 321.533 332 319.667C332.8 319.267 333.333 317.8 333.333 316.467C333.333 313.8 341.6 304.333 343.867 304.333C346.4 304.333 352 310.733 352 313.667C352 315.133 352.667 316.333 353.333 316.333C354.133 316.333 354.667 319 354.667 322.333C354.667 325.667 355.333 328.333 356 328.333C356.8 328.333 357.333 330.733 357.333 333.667C357.333 336.6 356.8 339 356 339C355.333 339 354.667 340.467 354.667 342.333C354.667 344.2 354.133 345.667 353.333 345.667C352.667 345.667 352 346.467 352 347.4C352 348.333 349.733 350.2 347.067 351.533C344.4 352.733 337.067 359.267 330.8 365.933C303.6 394.733 301.733 396.333 297.333 396.333C295.067 396.333 292.267 395.533 291.2 394.467C289.067 392.2 288.667 388.333 290.667 388.333C292.8 388.333 292.133 381.667 289.733 379.267C288.133 377.667 287.333 377.533 286.933 378.733C285.733 382.467 278.667 378.867 278.667 374.467C278.667 373.267 278.133 372.333 277.333 372.333C276.667 372.333 276 371.133 276 369.667C276 365.667 273.867 366.467 271.733 371C270.8 373.267 269.6 375 269.067 375C268.4 375 268 375.8 268 376.733C268 377.8 265.867 382.867 263.333 388.2C260.8 393.4 258.667 398.2 258.667 398.733C258.667 399.267 257.067 401.533 254.933 403.667C250.533 408.733 248 413 248 415.667C248 416.733 247.467 417.667 246.667 417.667C246 417.667 245.333 419.133 245.333 421C245.333 422.867 244.8 424.333 244 424.333C243.333 424.333 242.667 425.4 242.667 426.867C242.667 428.467 241.333 429.667 238.933 430.333C233.467 431.933 192.133 433.533 135.333 434.333C107.2 434.867 84.1333 435.8 83.3333 436.467C82.6667 437.133 76 437.667 68.4 437.667C60.1333 437.667 54.6667 438.2 54.6667 439C54.6667 439.667 53.4667 440.333 52 440.333C48.1333 440.333 48.6667 444.867 52.6667 446.733C54.5333 447.667 56.9333 448.333 58 448.333C59.0667 448.333 60 448.867 60 449.667C60 450.333 61.7333 451 63.8667 451C66.1333 451 68.1333 451.533 68.5333 452.2C69.3333 453.267 71.7333 453.8 85.7333 455.8C88.8 456.2 91.8667 457.133 92.5333 457.8C93.3333 458.467 96.1333 459 98.9333 459C101.733 459 104 459.533 104 460.2C104 460.867 107.2 461.667 111.067 462.067C114.8 462.467 120.667 463.4 124 464.333C127.333 465.133 131.867 466.2 134 466.467C136.267 466.867 139.2 467.667 140.667 468.2C142.133 468.867 146 470.067 149.333 471.133C154.267 472.733 155.333 473.533 155.333 476.2C155.333 479.8 149.467 484.067 144.4 484.2C142.667 484.333 141.333 484.867 141.333 485.667C141.333 486.333 139.867 487 138.133 487C136.267 487 134.4 487.533 134 488.333C133.6 489 131.467 489.667 129.2 489.667C127.067 489.667 125.333 490.2 125.333 491C125.333 491.667 123.6 492.333 121.333 492.333C119.2 492.333 117.333 492.867 117.333 493.667C117.333 494.333 114.933 495 112 495C109.067 495 106.667 495.533 106.667 496.333C106.667 497 104.533 497.667 102 497.667C99.4667 497.667 97.3333 498.2 97.3333 499C97.3333 499.667 95.2 500.333 92.6667 500.333C90.1333 500.333 88 500.867 88 501.667C88 502.333 85.6 503 82.6667 503C79.7333 503 77.3333 503.533 77.3333 504.333C77.3333 505 74.6667 505.667 71.3333 505.667C68 505.667 65.3333 506.2 65.3333 507C65.3333 507.667 62.9333 508.333 60 508.333C57.0667 508.333 54.6667 508.867 54.6667 509.667C54.6667 510.333 52.2667 511 49.3333 511C46.4 511 44 511.533 44 512.333C44 513 41.6 513.667 38.8 513.667C35.8667 513.667 33.0667 514.333 32.6667 515C32.2667 515.8 29.4667 516.333 26.5333 516.333C23.7333 516.333 21.3333 516.867 21.3333 517.667C21.3333 518.333 18.9333 519 16 519C13.0667 519 10.6667 519.533 10.6667 520.333C10.6667 521 8.26667 521.667 5.33333 521.667C2.4 521.667 0 522.333 0 523.133C0 524.6 2.26667 524.467 17.0667 522.2C20.1333 521.8 23.0667 520.867 23.4667 520.2C23.8667 519.533 26.1333 519 28.6667 519C31.2 519 33.6 518.333 34 517.667C34.4 516.867 37.4667 516.333 40.8 516.333C44 516.333 46.6667 515.667 46.6667 515C46.6667 514.2 49.0667 513.667 52 513.667C54.9333 513.667 57.3333 513 57.3333 512.333C57.3333 511.533 59.7333 511 62.6667 511C65.6 511 68 510.333 68 509.667C68 508.867 70.4 508.333 73.3333 508.333C76.2667 508.333 78.6667 507.667 78.6667 507C78.6667 506.2 81.0667 505.667 84 505.667C86.9333 505.667 89.3333 505 89.3333 504.333C89.3333 503.533 91.4667 503 94 503C96.5333 503 98.6667 502.333 98.6667 501.667C98.6667 500.867 101.067 500.333 104 500.333C106.933 500.333 109.333 499.667 109.333 499C109.333 498.2 111.733 497.667 114.667 497.667C117.6 497.667 120 497 120 496.333C120 495.533 121.867 495 124 495C126.267 495 128 494.333 128 493.667C128 492.867 129.867 492.333 132 492.333C134.267 492.333 136 491.667 136 491C136 490.2 137.467 489.667 139.333 489.667C141.2 489.667 142.667 489 142.667 488.333C142.667 487.533 144.133 487 146 487C147.867 487 149.333 486.6 149.333 485.933C149.333 485.4 151.333 484.067 153.6 483.133C160.533 480.067 162 478.067 160 474.467C158.267 471.133 150.267 467 145.6 467C144.133 467 142.533 466.467 142.133 465.8C141.333 464.6 136.533 463.533 125.733 462.2C122.533 461.667 120 460.867 120 460.2C120 459.533 117.067 459 113.467 459C109.733 459 106.4 458.333 106 457.667C105.6 456.867 102.8 456.333 99.8667 456.333C97.0667 456.333 94.6667 455.667 94.6667 455C94.6667 454.2 91.7333 453.667 88 453.667C84.4 453.667 81.3333 453 81.3333 452.333C81.3333 451.533 78.9333 451 76 451C73.0667 451 70.6667 450.333 70.6667 449.667C70.6667 448.867 68.2667 448.333 65.3333 448.333C62.4 448.333 60 447.667 60 447C60 446.2 58.8 445.667 57.3333 445.667C54.1333 445.667 54 444.867 56.5333 442.2C58 440.733 62.4 440.333 74.5333 440.333C84.4 440.333 90.6667 439.8 90.6667 439C90.6667 438.2 108.8 437.667 142.533 437.667C175.733 437.667 194.8 437.133 195.333 436.333C195.867 435.533 204.4 435 216.8 435C229.6 435 237.333 434.467 237.333 433.667C237.333 432.867 239.2 432.333 241.333 432.333C243.6 432.333 245.333 431.667 245.333 431C245.333 430.2 246.4 429.667 247.733 429.667C249.067 429.667 250.933 428.467 252 427C253.067 425.533 254.667 424.333 255.6 424.333C256.533 424.333 258.4 423.533 259.6 422.467C260.933 421.4 264.533 418.467 267.6 415.933C270.667 413.4 276.667 410.2 280.933 408.867C285.2 407.533 288.933 406.2 289.333 405.667C289.733 405.267 292.667 404.067 296 403C300.267 401.667 304.533 398.467 310.667 392.2C315.467 387.4 320.267 382.067 321.333 380.333C325.867 373.667 335.6 363.133 341.467 358.6C345.2 355.8 347.6 355.667 350.133 358.333C351.467 359.533 354.667 360.333 358.933 360.333C365.733 360.333 365.733 360.333 362.933 362.867C361.333 364.2 360 366.067 360 366.867C360 367.667 359.2 369.667 358.4 371.133C357.067 373.4 357.067 374.2 358.4 374.6C359.2 375 360 376.333 360 377.8C360 379.133 360.667 380.333 361.333 380.333C362.133 380.333 362.667 381.267 362.667 382.467C362.667 385 371.733 393.667 374.267 393.667C375.2 393.667 376 394.2 376 394.733C376 395.4 378.133 396.6 380.667 397.667C383.2 398.733 385.333 399.933 385.333 400.6C385.333 401.133 389.867 401.667 395.467 401.667C405.067 401.667 405.867 401.4 409.333 397.667C413.2 393.4 417.333 392.333 417.333 395.533C417.333 396.6 420.267 400.467 424 404.2C432.267 412.6 441.2 415.667 455.2 414.733C465.067 414.067 474.667 410.467 474.667 407.4C474.667 406.467 475.333 405.667 476 405.667C476.8 405.667 477.333 404.733 477.333 403.667C477.333 400.867 477.6 401 483.867 406.867C490 412.6 495.067 413.933 501.867 411.667C506.533 410.067 510.667 406.867 510.667 404.733C510.667 404.2 511.867 402.2 513.333 400.333C514.8 398.467 516 395.667 516 393.933C516 392.333 516.667 391 517.333 391C519.333 391 519.067 372.733 517.067 371.933C515.867 371.533 515.733 370.867 516.667 369.933C517.733 368.867 519.067 369 521.867 370.333C524 371.4 526.533 372.333 527.467 372.333C528.533 372.333 529.333 372.867 529.333 373.667C529.333 374.333 530.533 375 532 375C533.467 375 534.667 375.533 534.667 376.333C534.667 377 536.533 377.667 538.667 377.667C540.933 377.667 542.667 378.2 542.667 379C542.667 379.667 544.533 380.333 546.667 380.333C548.933 380.333 550.667 380.867 550.667 381.667C550.667 382.333 552.133 383 554 383C555.867 383 557.333 383.533 557.333 384.333C557.333 385 559.2 385.667 561.333 385.667C563.6 385.667 565.333 386.2 565.333 387C565.333 387.667 567.067 388.333 569.2 388.333C571.467 388.333 573.6 388.867 574 389.667C574.4 390.333 576.533 391 578.667 391C580.8 391 582.933 391.533 583.333 392.333C583.733 393 585.867 393.667 588.133 393.667C590.267 393.667 592 394.2 592 395C592 395.667 594 396.333 596.533 396.333C599.067 396.333 601.6 396.867 602 397.667C602.4 398.333 604.533 399 606.667 399C608.8 399 610.933 399.667 611.333 400.333C611.733 401.133 613.867 401.667 616 401.667C618.133 401.667 620.133 402.2 620.533 402.867C620.933 403.533 623.6 404.333 626.267 404.733C629.067 405.133 634 406.067 637.333 407C640.667 407.8 646.4 409 650 409.667C653.733 410.2 662.933 412.333 670.667 414.333C680.8 416.867 689.467 418.067 702.133 418.6L719.467 419.4L723.733 414.2C727.6 409.533 728 408.2 728 399.667C728 394.467 727.467 389.667 726.8 388.867C725.6 387.8 725.2 385 723.2 363C722.8 358.2 721.867 353.8 721.2 353.133C719.467 351.267 719.6 320.333 721.333 320.333C722.133 320.333 722.667 317.667 722.667 314.467C722.667 311.133 723.333 308.067 724 307.667C724.8 307.267 725.333 305.4 725.333 303.667C725.333 301.933 726 300.067 726.667 299.667C727.467 299.267 728 297.667 728 296.2C728 294.733 730.133 289.133 732.667 283.8C735.2 278.333 737.333 273.533 737.333 273.133C737.333 272.733 739.2 270.467 741.333 268.067C743.6 265.8 745.333 263.4 745.333 262.733C745.333 260.867 748.933 257.667 750.933 257.667C752 257.667 753.6 256.467 754.667 255C755.733 253.533 757.6 252.333 758.933 252.333C760.267 252.333 761.333 251.667 761.333 251C761.333 250.2 763.2 249.667 765.333 249.667C767.6 249.667 769.333 249.133 769.333 248.467C769.333 245.133 806.667 244.467 856.667 246.867C898 249 937.867 250.467 938.533 250.067C938.8 249.8 938.667 249.267 938.133 248.6C937.067 247.667 929.2 247.267 858.667 244.467C837.733 243.667 817.333 242.867 813.333 242.6C799.333 241.8 771.6 244.2 763.867 247C759.867 248.467 756.533 250.333 756.267 251C756 251.8 754.933 252.333 753.867 252.333C751.333 252.333 737.333 266.333 737.333 269C737.333 270.067 736.8 271 736.267 271C735.333 271 729.467 282.867 726.667 290.333C726.133 291.8 724.933 294.733 724.133 296.733C723.333 298.733 722.667 301.933 722.667 303.667C722.667 305.533 722.133 307 721.467 307C719.333 307 718.267 316.733 718.4 336.333C718.4 356.733 719.333 368.6 721.333 373C722 374.467 722.933 379.533 723.333 384.333C723.733 389.133 724.533 395.8 724.8 399.267C725.733 406.733 723.467 412.733 718.8 415.267C714 417.8 700.133 417.133 681.2 413.133C671.867 411.267 662.8 409.667 660.933 409.667C659.067 409.667 657.2 409.133 656.8 408.467C656.4 407.8 653.467 406.867 650.4 406.467C636.533 404.333 634.667 403.933 633.867 402.867C633.467 402.2 631.2 401.667 628.667 401.667C626.133 401.667 623.733 401 623.333 400.333C622.933 399.533 620.4 399 617.867 399C615.333 399 613.333 398.333 613.333 397.667C613.333 396.867 610.933 396.333 608 396.333C605.067 396.333 602.667 395.667 602.667 395C602.667 394.2 600.933 393.667 598.667 393.667C596.533 393.667 594.667 393 594.667 392.333C594.667 391.533 592.267 391 589.333 391C586.4 391 584 390.333 584 389.667C584 388.867 582.267 388.333 580 388.333C577.867 388.333 576 387.667 576 387C576 386.2 574.267 385.667 572 385.667C569.867 385.667 568 385 568 384.333C568 383.533 566.267 383 564.133 383C561.867 383 559.733 382.333 559.333 381.667C558.933 380.867 557.067 380.333 555.2 380.333C553.467 380.333 552 379.667 552 379C552 378.2 550.533 377.667 548.8 377.667C546.933 377.667 545.067 377.133 544.667 376.333C544.267 375.533 542.4 375 540.533 375C538.8 375 537.333 374.467 537.333 373.933C537.333 373.267 534.4 371.933 530.667 371C527.067 370.067 524 368.733 524 368.067C524 367.533 522.8 367 521.333 367C519.867 367 518.667 366.333 518.667 365.667C518.667 364.867 517.467 364.333 516 364.333C514.533 364.333 513.333 363.667 513.333 363C513.333 362.2 512.4 361.667 511.2 361.667C510 361.667 505.867 359.933 502.133 357.8C491.733 351.8 484.267 349.533 480.533 351.267C478.8 352.067 477.333 353.267 477.333 353.933C477.333 356.867 472.533 359.533 466.8 360.067C462.267 360.333 458.667 359.533 453.333 357.133C449.333 355.267 443.867 353.667 441.333 353.667C435.467 353.667 427.6 358.2 428.267 361.4C428.667 363.4 430.667 363.667 442 363.933C449.333 364.2 456.533 364.6 458.133 365C461.867 365.8 466.667 370.2 466.667 372.867C466.667 374.067 467.333 375 468 375C468.8 375 469.333 376.2 469.333 377.667C469.333 379.133 470 380.333 470.667 380.333C471.467 380.333 472 382.067 472 384.333C472 386.467 472.667 388.333 473.333 388.333C474.133 388.333 474.667 391.533 474.667 395.267C474.667 400.733 474 403.133 471.6 405.8C468 409.933 456.667 413.533 454.267 411.133C453.2 410.067 453.2 409.267 454.4 408.067C456.267 406.2 456.533 393.667 454.667 393.667C454 393.667 453.333 392.2 453.333 390.333C453.333 387 445.867 377.667 443.067 377.667C442.267 377.667 441.333 377 441.067 376.2C440.8 375.4 436.933 374.733 432.4 374.6C425.467 374.467 423.733 374.867 421.6 377.4C418 381.533 417.333 381.133 417.333 375C417.333 372.067 418 369.667 418.667 369.667C420.533 369.667 420.267 352.733 418.4 347.133C415.867 340.2 413.867 338.333 411.333 340.867C409.733 342.333 409.333 346.333 409.333 358.867C409.333 368.733 409.867 375 410.667 375C411.467 375 412 378.333 412 382.333C412 389 411.6 390.2 407.333 394.333C403.2 398.467 402 399 395.467 399C391.467 399 387.733 398.333 387.333 397.667C386.933 396.867 385.333 396.333 383.867 396.333C382.533 396.333 381.333 395.667 381.333 395C381.333 394.2 380.4 393.667 379.333 393.667C378.267 393.667 377.333 393 377.333 392.333C377.333 391.533 376.667 391 376 391C375.2 391 371.867 388.333 368.667 385C363.333 379.8 362.667 378.333 362.667 373.133C362.667 369.933 363.2 367 363.733 366.733C364.4 366.467 366.933 363.667 369.467 360.333C374.667 353.533 392 336.333 393.733 336.333C394.4 336.333 396.667 334.467 398.667 332.333C400.667 330.067 403.333 328.333 404.533 328.333C405.733 328.333 406.667 327.667 406.667 327C406.667 326.2 407.867 325.667 409.333 325.667C410.8 325.667 412 325 412 324.333C412 323.533 413.2 323 414.667 323C416.133 323 417.333 322.333 417.333 321.667C417.333 320.867 419.2 320.333 421.333 320.333C423.6 320.333 425.333 319.667 425.333 319C425.333 318.2 427.867 317.667 431.067 317.667C434.267 317.667 437.467 317 438.267 316.2C440.8 313.667 485.333 316.333 485.333 319.133C485.333 319.8 486.8 320.333 488.667 320.333C490.533 320.333 492 320.867 492 321.667C492 322.333 493.2 323 494.667 323C496.133 323 497.333 323.533 497.333 324.333C497.333 325 498.533 325.667 500 325.667C501.467 325.667 502.667 326.2 502.667 327C502.667 327.667 503.6 328.333 504.667 328.333C505.733 328.333 506.667 328.867 506.667 329.667C506.667 330.333 507.467 331 508.4 331C509.333 331 510.933 332.2 512 333.667C513.067 335.133 514.8 336.333 516 336.333C517.2 336.333 518.933 337.533 520 339C521.067 340.467 522.667 341.667 523.733 341.667C524.667 341.667 526.933 343.133 528.667 344.867C530.4 346.733 533.2 348.467 534.667 349C536.133 349.4 537.333 350.467 537.333 351.133C537.333 351.8 538.133 352.333 539.2 352.333C540.133 352.333 543.733 353.8 547.067 355.667C553.467 359.267 569.333 365.267 578 367.267C597.333 371.933 624.667 372.467 634 368.333C635.467 367.8 639.467 366.467 643.067 365.533C646.533 364.467 649.333 363.267 649.333 362.733C649.333 362.2 650.133 361.667 651.067 361.667C652 361.667 655.867 359.533 659.867 357C663.733 354.467 667.333 352.333 667.867 352.333C668.667 352.333 682.933 338.2 696.533 324.067C699.2 321.267 701.333 318.333 701.333 317.4C701.333 316.333 702.533 314.733 704 313.667C705.467 312.6 706.667 311 706.667 310.067C706.667 309.133 707.333 308.333 708 308.333C708.8 308.333 709.333 307.4 709.333 306.333C709.333 305.267 710 304.333 710.667 304.333C711.467 304.333 712 303.533 712 302.467C712 301.4 712.4 300.333 713.067 300.067C714.4 299.533 720 288.467 720 286.2C720 285.133 720.533 284.333 721.067 284.333C724.933 284.333 727.467 256.333 724.267 249C722.133 244.333 713.2 236.6 708.133 235.4C706.267 235 704.4 234.2 704 233.8C702.933 232.467 694 229.667 690.933 229.667C689.467 229.667 687.733 229 687.333 228.333C686.933 227.533 684.8 227 682.667 227C680.533 227 678.4 226.333 678 225.667C677.6 224.867 675.067 224.333 672.533 224.333C670 224.333 668 223.667 668 223C668 222.2 666.267 221.667 664 221.667C661.867 221.667 660 221 660 220.333C660 219.533 658.267 219 656 219C653.867 219 652 218.333 652 217.667C652 216.867 650.267 216.333 648 216.333C645.867 216.333 644 215.667 644 215C644 214.2 642.8 213.667 641.333 213.667C639.867 213.667 638.667 213 638.667 212.333C638.667 211.533 637.2 211 635.333 211C633.467 211 632 210.333 632 209.667C632 208.867 630.533 208.333 628.667 208.333C626.8 208.333 625.333 207.667 625.333 207C625.333 206.2 624.133 205.667 622.667 205.667C621.2 205.667 620 205 620 204.333C620 203.533 618.533 203 616.667 203C614.8 203 613.333 202.333 613.333 201.667C613.333 200.867 612.133 200.333 610.667 200.333C609.2 200.333 608 199.667 608 199C608 198.2 606.8 197.667 605.333 197.667C603.867 197.667 602.667 197 602.667 196.333C602.667 195.533 601.467 195 600 195C598.533 195 597.333 194.333 597.333 193.667C597.333 192.867 596.133 192.333 594.667 192.333C593.2 192.333 592 191.667 592 191C592 190.2 590.8 189.667 589.333 189.667C587.867 189.667 586.667 189 586.667 188.333C586.667 187.533 585.467 187 584 187C582.533 187 581.333 186.333 581.333 185.667C581.333 184.867 580.267 184.333 579.067 184.2C577.733 184.2 574.933 183 572.667 181.667C570.533 180.333 565.333 177.533 561.333 175.4C557.333 173.4 553.867 171.267 553.6 170.733C553.333 170.2 552 169.667 550.533 169.667C549.2 169.667 548 169 548 168.333C548 167.533 547.067 167 545.867 167C544.8 167 542.933 166.067 541.867 165C539.733 163 537.733 165 596.8 106.733C620.133 83.6667 633.333 69.2667 633.333 67C633.333 66.3334 634 65.6667 634.667 65.6667C635.467 65.6667 636 64.7334 636 63.6667C636 62.6 636.667 61.6667 637.333 61.6667C638.133 61.6667 638.667 60.4667 638.667 59.1334C638.667 57.6667 639.867 56.0667 641.333 55.6667C642.8 55.2667 644 54.2 644 53.5334C644 52.8667 645.067 52.3334 646.4 52.3334C647.733 52.3334 649.6 51.1334 650.667 49.6667C651.733 48.2 653.333 47 654.133 47C656.4 47 665.333 37.8 665.333 35.5334C665.333 34.4667 666 33.6667 666.667 33.6667C668.667 33.6667 668.267 23.9334 666 19.4C663.2 13.6667 651.333 3.00005 646.4 1.53338C640.667 -0.0666191 640.133 -0.0666191 634.133 3.13338ZM648.4 5.93338C650 6.73338 653.733 9.93338 656.667 13C668.133 24.8667 668.4 29.6667 657.867 39.8C653.733 43.8 649.6 47 648.8 47C648 47 646.4 48.2 645.333 49.6667C643.067 52.7334 636 53.4 636 50.4667C636 47.9334 616.667 28.3334 614.267 28.3334C611.2 28.3334 610.533 32.0667 612.533 36.2C615.467 41.8 624.533 50.4667 630.267 53.1334C633.067 54.4667 635.6 55.6667 635.867 55.9334C636.667 56.6 633.067 63.4 630.667 65.6667C629.467 66.7334 627.067 69.8 625.333 72.3334C620 79.9334 593.333 107.267 567.333 131.667C559.467 139 549.333 148.733 544.533 153.267C538.667 159.133 535.067 161.667 532.667 161.667C530.8 161.667 529.333 161 529.333 160.333C529.333 159.533 526.933 159 524.133 159C521.2 159 518.4 158.333 518 157.667C517.6 156.867 514.533 156.333 511.333 156.333C508.133 156.333 505.067 156.867 504.667 157.667C504.267 158.333 501.733 159 499.2 159C496.667 159 494.667 159.533 494.667 160.333C494.667 161 493.2 161.667 491.333 161.667C489.467 161.667 488 162.2 488 163C488 163.667 487.2 164.333 486.267 164.333C485.333 164.333 483.2 165.533 481.6 167C480 168.467 478.267 169.667 477.733 169.667C477.2 169.667 475.067 171 473.067 172.733C471.2 174.333 468.267 176.6 466.667 177.667C459.6 182.467 436 205.267 436 207.267C436 207.8 435.2 208.333 434.267 208.333C433.333 208.333 431.733 209.533 430.667 211C429.6 212.467 428.267 213.667 427.733 213.667C427.067 213.667 422.8 217.4 418.133 221.933C397.733 242.2 391.2 244.867 390.933 232.867C390.933 229.4 390.267 226.067 389.467 225.267C388.667 224.467 388 222.733 388 221.4C388 220.067 387.467 219 386.667 219C386 219 385.333 217.933 385.333 216.6C385.2 213.4 380.667 208.333 377.867 208.333C374.267 208.333 376.133 221.133 381.333 231.133C383.6 235.667 385.067 239.8 384.4 240.333C383.867 241 380 241.8 376 242.2C372 242.6 367.067 243.4 365.2 243.933C360 245.533 354.667 249.933 354.667 252.6C354.667 253.933 354.133 255 353.333 255C352.667 255 352 256.2 352 257.667C352 259.133 351.467 260.333 350.667 260.333C350 260.333 349.333 262.067 349.333 264.333C349.333 266.467 348.8 268.333 348 268.333C347.333 268.333 346.667 270.067 346.667 272.333C346.667 274.467 346.133 276.333 345.333 276.333C344.667 276.333 344 277.533 344 279C344 280.467 343.467 281.667 342.933 281.667C342.4 281.667 340.8 283.533 339.467 285.8C338.133 287.933 335.067 291.667 332.667 293.8C324.667 301.133 322.267 309.667 328.267 309.667C331.067 309.667 331.067 309.267 328.533 323.933C327.733 328.333 327.733 328.333 319.733 328.333C313.733 328.333 311.2 327.667 309.067 325.667C307.333 324.067 304.267 323 301.733 323H297.333V313.667C297.333 308.333 297.867 304.333 298.667 304.333C299.467 304.333 300 302.467 300 300.333C300 298.067 300.667 296.333 301.333 296.333C302.133 296.333 302.667 294.467 302.667 292.333C302.667 290.067 303.333 288.333 304 288.333C304.8 288.333 305.333 286.867 305.333 285C305.333 283.133 306 281.667 306.667 281.667C307.467 281.667 308 280.467 308 279C308 277.533 308.667 276.333 309.333 276.333C310.133 276.333 310.667 275.4 310.667 274.467C310.667 273.4 314.4 264.733 319.067 255.267C330.533 231.4 333.333 225.133 333.333 223.267C333.333 222.333 334 221.667 334.667 221.667C335.467 221.667 336 220.467 336 219C336 217.533 336.667 216.333 337.333 216.333C338.133 216.333 338.667 215.133 338.667 213.667C338.667 212.2 339.333 211 340 211C340.8 211 341.333 210.067 341.333 209C341.333 206.867 344.133 203 348.933 198.467C353.6 193.933 355.067 193 361.333 191C364.667 189.933 367.6 188.733 368 188.333C368.4 187.933 373.2 186.067 378.667 184.2C398.533 177.133 406 174.333 406.667 173.533C407.067 173.133 412 171.4 417.6 169.533C423.333 167.8 428 165.933 428 165.267C428 164.733 429.467 164.333 431.2 164.333C433.067 164.333 434.933 163.667 435.333 163C435.733 162.2 437.6 161.667 439.467 161.667C441.2 161.667 442.667 161 442.667 160.333C442.667 159.533 444.533 159 446.667 159C448.933 159 450.667 158.333 450.667 157.667C450.667 156.867 452.533 156.333 454.667 156.333C456.933 156.333 458.667 155.667 458.667 155C458.667 154.2 461.067 153.667 464 153.667C466.933 153.667 469.333 153 469.333 152.333C469.333 151.533 474 151 480.667 151C487.333 151 492 150.467 492 149.667C492 148.867 492.667 148.333 493.333 148.333C495.067 148.333 513.333 130.067 513.333 128.333C513.333 127.533 513.867 127 514.667 127C516.133 127 548.133 94.8667 557.333 84.2C560.667 80.3334 564.4 76.3334 565.733 75.1334C566.933 74.0667 568 72.3334 568 71.4C568 70.4667 568.533 69.6667 569.2 69.6667C570.8 69.6667 593.467 47.1334 597.333 41.6667C600.533 37.1334 620.667 16.7334 626.4 12.0667C631.067 8.33338 639.067 4.46671 642.4 4.33338C644.133 4.33338 646.8 5.00005 648.4 5.93338ZM622.4 39C629.867 47 630.933 48.4667 630.267 49.1334C629.333 50.0667 621.6 43.4 616.4 37.1334C614.267 34.6 614.267 33.6667 616.133 33.6667C616.933 33.6667 619.733 36.0667 622.4 39ZM526.667 162.867C526.667 163.533 527.867 164.333 529.467 164.6C532.133 165 532.133 165 529.733 167.667C528.267 169.133 524 173 520.133 176.333C516.267 179.667 508.133 187.133 502 193C488.8 205.667 482.933 211 482 211C481.6 211 477.733 214.6 473.2 219C468.8 223.4 464.533 227 463.733 227C463.067 227 460.8 228.6 458.8 230.6C452.533 237.133 442.4 243.4 436.133 244.6C432.8 245.267 418 246.333 403.333 247C374 248.333 365.467 249.267 362.933 251.4C360.533 253.267 359.333 251.533 361.6 249.267C363.733 247.133 377.867 244.2 388.933 243.667C393.2 243.4 397.333 243.267 398.133 243.133C398.933 243 403.067 239.667 407.333 235.667C411.467 231.667 415.333 228.333 416 228.333C416.533 228.333 421.6 223.8 427.2 218.333C432.8 212.867 437.733 208.333 438 208.333C438.4 208.333 444.267 202.733 451.2 195.933C458 189.267 464.933 182.733 466.533 181.667C469.2 179.933 472.533 177.4 476.8 173.933C477.467 173.267 479.6 171.933 481.467 171C483.2 170.067 484.933 168.867 485.333 168.467C485.733 168.067 487.867 166.867 490 165.8C492.267 164.867 494.933 163.533 496 162.867C498.8 161.4 526.667 161.4 526.667 162.867ZM540 168.333C540 169 540.8 169.667 541.867 169.667C544.267 169.667 577.867 187 578.4 188.6C578.667 189.133 580 189.667 581.467 189.667C582.8 189.667 584 190.2 584 191C584 191.667 585.2 192.333 586.667 192.333C588.133 192.333 589.333 192.867 589.333 193.667C589.333 194.333 590.533 195 592 195C593.467 195 594.667 195.533 594.667 196.333C594.667 197 595.867 197.667 597.333 197.667C598.8 197.667 600 198.2 600 199C600 199.667 601.2 200.333 602.533 200.333C604 200.333 605.6 200.867 606 201.667C606.4 202.333 608 203 609.467 203C610.8 203 612 203.533 612 204.333C612 205 613.2 205.667 614.667 205.667C616.133 205.667 617.333 206.2 617.333 207C617.333 207.667 618.533 208.333 620 208.333C621.467 208.333 622.667 208.867 622.667 209.667C622.667 210.333 624.533 211 626.667 211C628.933 211 630.667 211.533 630.667 212.333C630.667 213 631.867 213.667 633.333 213.667C634.8 213.667 636 214.2 636 215C636 215.667 637.467 216.333 639.2 216.333C641.067 216.333 642.933 216.867 643.333 217.667C643.733 218.333 645.333 219 646.8 219C648.133 219 649.333 219.533 649.333 220.333C649.333 221 651.2 221.667 653.333 221.667C655.6 221.667 657.333 222.2 657.333 223C657.333 223.667 659.2 224.333 661.333 224.333C663.6 224.333 665.333 224.867 665.333 225.533C665.333 226.2 667.333 227 669.733 227.4C672 227.8 676.4 228.733 679.333 229.667C682.267 230.6 686.667 231.533 689.067 231.933C691.467 232.333 693.733 233.133 694.133 233.8C694.533 234.467 696 235 697.467 235C700.8 235 716.267 242.733 717.733 245.133C718.267 246.067 719.6 247.8 720.667 248.867C724.4 252.6 722.267 281.667 718.4 281.667C717.733 281.667 717.333 283.133 717.333 285C717.333 286.867 716.8 288.333 716 288.333C715.333 288.333 714.667 289.533 714.667 291C714.667 292.467 714.133 293.667 713.333 293.667C712.667 293.667 712 294.6 712 295.667C712 296.733 711.6 297.667 710.933 297.667C710.4 297.667 709.067 299.667 708.133 301.933C707.067 304.333 705.067 307.267 703.733 308.467C702.4 309.667 701.333 311.4 701.333 312.333C701.333 313.133 699.6 315.667 697.333 317.667C695.2 319.667 693.333 322.067 693.333 322.733C693.333 324.067 678 339.933 672.267 344.6C670.667 345.933 666.8 348.6 663.733 350.467C660.533 352.467 655.867 355.533 653.333 357.133C650.8 358.867 644 361.667 638.4 363.533C629.333 366.6 626.133 367 608.533 367C597.733 367 587.067 366.467 584.8 365.8C582.533 365 577.067 363.533 572.667 362.2C562.4 359.4 540 349.8 540 348.2C540 347.533 538.933 347 537.6 347C536.267 347 534.4 345.8 533.333 344.333C532.267 342.867 530.533 341.667 529.333 341.667C528.133 341.667 526.4 340.467 525.333 339C524.267 337.533 522.533 336.333 521.6 336.333C520.533 336.333 518 334.467 516 332.333C514 330.067 511.333 328.333 510.133 328.333C508.933 328.333 508 327.667 508 327C508 326.2 507.067 325.667 506 325.667C504.933 325.667 504 325 504 324.333C504 323.533 503.067 323 502 323C500.933 323 500 322.333 500 321.667C500 320.867 499.067 320.333 498 320.333C496.933 320.333 494.8 319.667 493.333 319C491.867 318.2 489.467 317 488 316.333C486.533 315.533 483.6 315 481.467 315C479.2 315 477.067 314.333 476.667 313.667C476.133 312.867 467.6 312.333 455.333 312.333C443.067 312.333 434.533 312.867 434 313.667C433.6 314.333 430.8 315 427.867 315C425.067 315 422.667 315.533 422.667 316.333C422.667 317 420.933 317.667 418.667 317.667C416.533 317.667 414.667 318.2 414.667 319C414.667 319.667 413.467 320.333 412 320.333C410.533 320.333 409.333 320.867 409.333 321.667C409.333 322.333 408.533 323 407.6 323C406.667 323 404.533 324.2 402.933 325.667C401.333 327.133 399.467 328.333 398.8 328.333C398 328.333 394.533 331 391.067 334.2C372.8 351.133 371.467 352.067 369.067 350.867C366 349.267 357.333 349.4 357.333 351C357.333 351.667 356.8 352.333 356 352.333C355.333 352.333 354.667 351.133 354.667 349.667C354.667 348.2 355.333 347 356 347C356.8 347 357.333 345.8 357.333 344.333C357.333 342.867 358 341.667 358.667 341.667C359.467 341.667 360 338.067 360 333.667C360 329.267 359.467 325.667 358.667 325.667C358 325.667 357.333 323.267 357.333 320.333C357.333 317.4 356.8 315 356 315C355.333 315 354.667 313.8 354.667 312.333C354.667 310.867 354.133 309.667 353.333 309.667C352.667 309.667 352 308.733 352 307.533C352 304.467 348.667 301.667 344.8 301.667C342.667 301.667 341.333 300.867 341.333 299.667C341.333 298.6 342 297.667 342.667 297.667C343.467 297.667 344 296.467 344 295C344 293.533 344.667 292.333 345.333 292.333C346.133 292.333 346.667 289.933 346.667 287C346.667 284.067 347.333 281.667 348 281.667C348.8 281.667 349.333 279.8 349.333 277.667C349.333 275.4 350 273.667 350.667 273.667C351.467 273.667 352 271.8 352 269.667C352 267.4 352.667 265.667 353.333 265.667C354.133 265.667 354.667 264.733 354.667 263.667C354.667 261.133 360.533 255 363.067 255C364 255 365.333 254.467 366 253.8C367.733 252.2 379.867 251.133 410.667 249.933C424.267 249.4 436.533 248.467 438 247.8C445.2 244.867 450.133 242.467 451.467 241.133C452.267 240.333 454.4 238.733 456 237.667C457.6 236.6 461.333 233.4 464.267 230.6C467.2 227.933 470 225.667 470.667 225.667C471.2 225.667 476.267 221.133 481.867 215.667C487.467 210.2 492.4 205.667 492.667 205.667C493.333 205.667 500.533 198.867 522 178.333C524.933 175.4 529.2 171.667 531.467 170.067C535.6 167 540 166.067 540 168.333ZM384 220.6C384.933 223 386.267 226.333 386.933 227.8C387.6 229.4 388 231.8 387.733 233.133C387.2 235 386.133 233.533 383.6 227.933C381.6 223.667 380 219.4 380 218.333C380 214.867 382.267 216.2 384 220.6ZM340.133 295.4C339.333 296.2 338.667 297.667 338.667 298.6C338.667 301.133 332.533 307 330 307C328.933 307 328 306.6 328 306.2C328 304.333 331.467 299.4 335.867 294.733C339.467 291 340.8 290.333 341.067 291.8C341.333 293 340.933 294.6 340.133 295.4ZM304.267 337.933C303.333 338.867 302.667 340.333 302.667 341.4C302.667 342.467 300.933 345 298.667 347C296.533 349 294.667 351.133 294.667 351.667C294.667 352.467 287.6 358.867 284.533 360.6C283.333 361.4 283.067 360.867 283.733 358.733C284.4 355.8 286.533 352.733 291.733 347.4C293.333 345.667 294.667 343.667 294.667 343C294.667 342.2 295.467 341.667 296.4 341.667C297.467 341.667 299.333 340.467 300.8 339.133C302.133 337.667 303.867 336.467 304.667 336.467C305.333 336.333 305.2 337 304.267 337.933ZM416 351.267C417.2 356.333 417.333 358.333 416.133 358.733C415.333 359 414.667 361.267 414.667 363.667C414.667 366.2 414.133 368.6 413.333 369C412.533 369.533 412 365.267 412 357.133C412 350.067 412.533 344.333 413.067 344.333C413.733 344.333 414.933 347.4 416 351.267ZM363.867 355.533C362.4 356.733 354.667 357.4 354.667 356.333C354.667 354.6 363.2 352.467 363.867 353.933C364 354.6 364 355.4 363.867 355.533ZM491.067 355.933L495.333 358.333L488.133 358.733C480.267 359.133 479.333 358.733 480.4 355.667C481.467 353 485.733 353.133 491.067 355.933ZM447.2 357.667C453.467 360.067 450.933 361.667 441.2 361.667C433.067 361.667 431.867 361.4 433.333 359.8C434.133 358.733 436.533 357.533 438.4 357.267C440.4 357 442.4 356.6 442.933 356.467C443.467 356.467 445.333 356.867 447.2 357.667ZM500.8 363.267C504.533 364.333 508.8 366.733 511.467 369.4C515.2 373.133 516 374.867 516 379.8C516 386.2 513.333 396.333 511.733 396.333C511.067 396.333 510.667 397.267 510.667 398.467C510.667 399.667 508.667 402.6 506.133 405.133C502.667 408.6 500.533 409.667 496.8 409.667C490.267 409.667 485.733 407.267 483.733 402.733C482.8 400.733 481.6 399 481.067 399C480.4 399 480 397 480 394.467C480 391.933 479.467 389.4 478.667 389C477.867 388.6 477.333 382.333 477.333 374.867V361.667H486C490.8 361.667 497.467 362.467 500.8 363.267ZM474.667 368.867C474.667 372.2 474.133 375.267 473.333 375.667C472.667 376.067 472 375.533 472 374.467C472 373.267 471.467 372.333 470.667 372.333C470 372.333 469.333 371.4 469.333 370.333C469.333 369.267 468.8 368.333 468 368.333C467.333 368.333 466.667 367.133 466.667 365.667C466.667 363.533 467.6 363 470.667 363C474.533 363 474.667 363.267 474.667 368.867ZM276 377.133C276 380.6 279.467 383 284.533 383C287.2 383 289.333 383.533 289.333 384.333C289.333 385 288.8 385.667 288 385.667C286.267 385.667 286.267 395.933 287.867 396.6C290.133 397.4 286.133 401.267 279.333 404.867C275.6 406.733 271.733 409 270.533 409.933C268.8 411.133 267.6 410.867 264.933 408.867C259.867 405.133 259.733 403.8 263.867 394.6C266 390.067 268.667 383.8 270 380.6C272.4 375.133 276 373 276 377.133ZM440 378.733C440 379.267 441.867 380.467 444 381.4C446.4 382.467 448 384.2 448 385.8C448 387.133 448.667 388.333 449.333 388.333C450.133 388.333 450.667 389.8 450.667 391.533C450.667 393.4 451.333 395.267 452 395.667C453.867 396.867 453.6 404.6 451.467 407.267C446.533 413.933 426.8 406.067 421.467 395.4C419.067 390.733 419.733 384.467 423.067 381C425.467 378.467 427.333 377.8 433.067 377.8C436.8 377.667 440 378.067 440 378.733ZM264.533 414.067C263.733 416.067 254.667 421.933 253.2 421.4C252.267 421 254.933 414.2 257.733 409.933C259.067 407.933 265.467 411.8 264.533 414.067Z" fill="black"/>
</g>
<defs>
<clipPath id="clip0_477_105">
<rect width="939" height="525" fill="white"/>
</clipPath>
</defs>
</svg>
