<svg width="96" height="49" viewBox="0 0 96 49" fill="none" xmlns="http://www.w3.org/2000/svg">
<path d="M4.952 45.696C4.952 46.272 4.728 46.832 4.28 47.376C3.736 47.824 3.176 48.048 2.6 48.048C1.928 48.048 1.368 47.824 0.92 47.376C0.44 46.896 0.2 46.336 0.2 45.696V24.144C0.2 20.848 1.384 18.016 3.752 15.648C6.12 13.28 8.952 12.096 12.248 12.096C15.576 12.096 18.424 13.28 20.792 15.648C23.128 17.984 24.296 20.816 24.296 24.144C24.296 27.504 23.128 30.352 20.792 32.688C18.456 35.024 15.608 36.192 12.248 36.192C9.56 36.192 7.128 35.376 4.952 33.744V45.696ZM4.952 24.192C4.952 26.176 5.672 27.888 7.112 29.328C8.52 30.736 10.232 31.44 12.248 31.44C14.264 31.44 15.992 30.72 17.432 29.28C18.84 27.872 19.544 26.16 19.544 24.144C19.544 22.224 18.84 20.512 17.432 19.008C15.992 17.568 14.264 16.848 12.248 16.848C10.232 16.848 8.52 17.552 7.112 18.96C5.672 20.4 4.952 22.128 4.952 24.144V24.192ZM26.9724 2.4C26.9724 1.76 27.2124 1.2 27.6924 0.719999C28.1404 0.271999 28.7004 0.0479994 29.3724 0.0479994C29.9484 0.0479994 30.5084 0.271999 31.0524 0.719999C31.5004 1.264 31.7244 1.824 31.7244 2.4V33.648C31.7244 34.32 31.5004 34.88 31.0524 35.328C30.5724 35.808 30.0124 36.048 29.3724 36.048C28.7004 36.048 28.1404 35.808 27.6924 35.328C27.2124 34.88 26.9724 34.32 26.9724 33.648V2.4ZM58.6051 33.552C58.6051 34.256 58.3811 34.832 57.9331 35.28C57.4851 35.728 56.9091 35.952 56.2051 35.952C55.7571 35.952 55.2611 35.728 54.7171 35.28C54.1731 34.736 53.9011 34.16 53.9011 33.552C51.9171 35.152 49.5491 35.952 46.7971 35.952C43.4051 35.952 40.5411 34.832 38.2051 32.592C35.8371 30.32 34.6531 27.504 34.6531 24.144C34.6531 20.784 35.8371 17.92 38.2051 15.552C40.5731 13.184 43.4371 12 46.7971 12C50.1571 12 52.9731 13.184 55.2451 15.552C57.4851 17.888 58.6051 20.752 58.6051 24.144V33.552ZM41.5651 29.184C42.9411 30.56 44.6851 31.248 46.7971 31.248C48.8131 31.248 50.5091 30.56 51.8851 29.184C53.2291 27.84 53.9011 26.16 53.9011 24.144C53.9011 22.096 53.2291 20.352 51.8851 18.912C50.5091 17.44 48.8131 16.704 46.7971 16.704C44.7811 16.704 43.0371 17.44 41.5651 18.912C40.0931 20.384 39.3571 22.128 39.3571 24.144C39.3571 26.128 40.0931 27.808 41.5651 29.184ZM95.1706 33.696C95.1706 34.368 94.9306 34.928 94.4506 35.376C93.9706 35.856 93.4106 36.096 92.7706 36.096C92.1306 36.096 91.5706 35.856 91.0906 35.376C90.6426 34.928 90.4186 34.368 90.4186 33.696V21.6C90.4186 20.256 89.9386 19.104 88.9786 18.144C87.9546 17.216 86.8026 16.752 85.5226 16.752C84.2426 16.752 83.0906 17.216 82.0666 18.144C81.1066 19.104 80.6266 20.256 80.6266 21.6V33.696C80.6266 34.368 80.4026 34.928 79.9546 35.376C79.4746 35.856 78.9146 36.096 78.2746 36.096C77.6346 36.096 77.0746 35.856 76.5946 35.376C76.1146 34.928 75.8746 34.368 75.8746 33.696V21.6C75.8746 20.32 75.4106 19.168 74.4826 18.144C73.4586 17.216 72.3066 16.752 71.0266 16.752C69.7466 16.752 68.5946 17.216 67.5706 18.144C66.6106 19.104 66.1306 20.256 66.1306 21.6V33.696C66.1306 34.368 65.9066 34.928 65.4586 35.376C64.9786 35.856 64.4186 36.096 63.7786 36.096C63.1066 36.096 62.5466 35.856 62.0986 35.376C61.6186 34.928 61.3786 34.368 61.3786 33.696V21.6C61.3786 18.976 62.3226 16.72 64.2106 14.832C66.0986 12.944 68.3706 12 71.0266 12C74.0026 12 76.4186 13.104 78.2746 15.312C80.1626 13.104 82.5786 12 85.5226 12C88.1786 12 90.4506 12.944 92.3386 14.832C94.2266 16.72 95.1706 18.976 95.1706 21.6C95.1706 21.696 95.1546 21.76 95.1226 21.792C95.1546 21.824 95.1706 21.904 95.1706 22.032V33.696Z" fill="white"/>
</svg>
